<svg width="978" height="651" viewBox="0 0 978 651" fill="none" xmlns="http://www.w3.org/2000/svg">
<path d="M286.934 159.184L140.774 256.906L284.741 472.014L430.901 374.292L286.934 159.184Z" fill="#F5F5F5"/>
<path d="M355.372 364.117L353.718 374.377L281.055 363.909L282.71 353.649L355.372 364.117Z" fill="#E0E0E0"/>
<path d="M318.781 327.518L329.202 329.015L317.647 400.521L307.213 399.011L318.781 327.518Z" fill="#E0E0E0"/>
<path d="M251.914 236.638C252.019 236.782 237.377 246.768 219.204 258.903C201.032 271.037 186.221 280.776 186.117 280.62C186.013 280.464 200.655 270.49 218.827 258.343C236.999 246.195 251.745 236.482 251.914 236.638Z" fill="#E0E0E0"/>
<path d="M305.611 223.15C305.715 223.306 281.355 239.763 251.211 259.918C221.068 280.073 196.499 296.283 196.421 296.14C196.343 295.997 220.651 279.513 250.833 259.358C281.016 239.203 305.506 222.994 305.611 223.15Z" fill="#E0E0E0"/>
<path d="M316.384 239.243C316.488 239.399 292.128 255.869 261.984 276.024C231.84 296.179 207.272 312.389 207.194 312.233C207.116 312.076 231.45 295.619 261.606 275.451C291.763 255.283 316.279 239.086 316.384 239.243Z" fill="#E0E0E0"/>
<path d="M327.156 255.348C327.26 255.504 302.901 271.975 272.757 292.117C242.613 312.259 218.045 328.495 218.045 328.338C218.045 328.182 242.288 311.712 272.444 291.557C302.601 271.402 327.052 255.192 327.156 255.348Z" fill="#E0E0E0"/>
<path d="M337.89 271.454C337.995 271.61 313.635 288.068 283.491 308.222C253.347 328.377 228.779 344.587 228.714 344.431C228.649 344.275 252.996 327.818 283.178 307.663C313.361 287.508 337.89 271.298 337.89 271.454Z" fill="#E0E0E0"/>
<path d="M775.677 303.32L652.926 385.391L773.831 566.041L896.583 483.971L775.677 303.32Z" fill="#F5F5F5"/>
<path d="M833.164 475.464L831.77 484.084L770.74 475.295L772.147 466.676L833.164 475.464Z" fill="#E0E0E0"/>
<path d="M802.435 444.724L811.189 445.987L801.484 506.035L792.717 504.772L802.435 444.724Z" fill="#E0E0E0"/>
<path d="M746.224 368.466C746.328 368.622 734.044 377.02 718.777 387.215C703.51 397.409 691.056 405.56 690.952 405.443C690.848 405.326 703.145 396.902 718.399 386.694C733.653 376.486 746.12 368.245 746.224 368.466Z" fill="#E0E0E0"/>
<path d="M791.361 357.073C791.466 357.23 771.027 371.083 745.768 387.996C720.509 404.909 699.836 418.528 699.732 418.372C699.628 418.215 720.066 404.362 745.325 387.436C770.584 370.51 791.218 356.917 791.361 357.073Z" fill="#E0E0E0"/>
<path d="M800.415 370.588C800.519 370.745 780.081 384.598 754.822 401.524C729.563 418.45 708.89 432.043 708.786 431.886C708.681 431.73 729.055 417.942 754.379 401.016C779.703 384.09 800.337 370.445 800.415 370.588Z" fill="#E0E0E0"/>
<path d="M809.456 384.09C809.56 384.246 789.109 398.1 763.863 415.026C738.617 431.952 717.931 445.544 717.827 445.388C717.722 445.232 738.161 431.392 763.42 414.453C788.679 397.514 809.365 383.96 809.456 384.09Z" fill="#E0E0E0"/>
<path d="M818.574 397.644C818.679 397.8 798.24 411.64 772.981 428.566C747.722 445.492 727.049 459.085 726.945 458.942C726.841 458.799 747.279 444.932 772.538 428.006C797.797 411.08 818.405 397.488 818.574 397.644Z" fill="#E0E0E0"/>
<path d="M581.478 167.098L447.541 95.4987L342.059 292.616L475.996 364.215L581.478 167.098Z" fill="#F5F5F5"/>
<path d="M453.072 302.546L444.579 305.449L423.007 245.857L431.513 242.94L453.072 302.546Z" fill="#E0E0E0"/>
<path d="M466.099 259.788L469.199 268.342L409.98 288.614L406.88 280.06L466.099 259.788Z" fill="#E0E0E0"/>
<path d="M508.175 171.864C508.071 172.059 494.497 165.002 477.836 156.11C461.175 147.217 447.77 139.835 447.875 139.64C447.979 139.444 461.566 146.501 478.227 155.394C494.888 164.286 508.279 171.656 508.175 171.864Z" fill="#E0E0E0"/>
<path d="M540.325 207.317C540.221 207.513 517.737 195.691 490.107 180.926C462.478 166.161 440.176 154.027 440.28 153.831C440.384 153.636 462.855 165.445 490.485 180.223C518.114 195.001 540.429 207.122 540.325 207.317Z" fill="#E0E0E0"/>
<path d="M532.431 222.069C532.327 222.264 509.843 210.455 482.213 195.678C454.584 180.9 432.282 168.778 432.386 168.583C432.49 168.388 454.961 180.21 482.591 194.974C510.22 209.739 532.535 221.874 532.431 222.069Z" fill="#E0E0E0"/>
<path d="M524.536 236.821C524.432 237.016 501.948 225.207 474.319 210.442C446.689 195.678 424.387 183.582 424.492 183.348C424.596 183.113 447.067 194.961 474.696 209.726C502.326 224.491 524.641 236.625 524.536 236.821Z" fill="#E0E0E0"/>
<path d="M516.642 251.572C516.538 251.768 494.054 239.959 466.425 225.194C438.795 210.429 416.48 198.295 416.598 198.099C416.715 197.904 439.173 209.713 466.802 224.478C494.432 239.243 516.747 251.377 516.642 251.572Z" fill="#E0E0E0"/>
<path opacity="0.2" d="M517.333 0H513.972V57.262H517.333V0Z" fill="black"/>
<path d="M437.193 126.541H594.112C594.112 126.541 579.626 57.288 514.467 57.288C456.511 57.288 437.193 126.541 437.193 126.541Z" fill="#FFAC00"/>
<path d="M517.333 0H513.972V57.262H517.333V0Z" fill="#FFAC00"/>
<path d="M865.041 572.659C865.041 572.841 696.671 572.997 489.013 572.997C281.355 572.997 112.959 572.88 112.959 572.659C112.959 572.437 281.303 572.32 489.013 572.32C696.723 572.32 865.041 572.463 865.041 572.659Z" fill="#263238"/>
<path d="M154.593 491.114C156.795 491.273 158.943 491.874 160.908 492.881C162.873 493.887 164.615 495.279 166.03 496.973C168.844 500.382 170.836 504.391 171.853 508.691C174.054 516.92 172.7 526.646 170.355 534.836C161.445 531.646 155.934 522.141 153.42 517.141C149.512 509.251 147.18 492.586 154.553 491.101" fill="#FFAC00"/>
<path d="M183.186 544.822C181.848 542.748 181.083 540.357 180.969 537.892C180.854 535.427 181.395 532.975 182.535 530.786C183.711 528.618 185.307 526.706 187.231 525.161C189.154 523.617 191.366 522.47 193.738 521.79C195.913 521.112 198.44 520.839 200.329 522.102C201.181 522.746 201.844 523.606 202.249 524.593C202.655 525.58 202.788 526.658 202.635 527.714C202.293 529.829 201.394 531.815 200.03 533.468C195.692 539.34 190.429 544.223 183.095 544.822" fill="#FFAC00"/>
<path d="M184.176 572.333C183.983 571.78 183.847 571.209 183.772 570.628C183.538 569.404 183.225 567.828 182.847 565.94C181.678 560.771 181.353 555.446 181.883 550.173C182.498 544.874 184.517 539.835 187.732 535.578C188.715 534.305 189.848 533.155 191.106 532.153C191.448 531.882 191.805 531.63 192.174 531.398C192.292 531.301 192.424 531.222 192.565 531.164C190.917 532.571 189.412 534.137 188.071 535.838C185.025 540.1 183.107 545.063 182.496 550.264C181.662 556.332 182.691 561.891 183.29 565.888C183.603 567.88 183.863 569.495 184.007 570.615C184.109 571.182 184.166 571.757 184.176 572.333Z" fill="#263238"/>
<path d="M157.458 503.653C157.607 503.858 157.73 504.081 157.823 504.317C158.058 504.837 158.37 505.488 158.735 506.309C159.53 508.04 160.637 510.553 161.979 513.665C164.662 519.902 168.258 528.573 172.009 538.234C175.761 547.895 178.953 556.709 181.128 563.128C182.248 566.331 183.121 568.935 183.733 570.745C184.007 571.604 184.215 572.294 184.385 572.828C184.478 573.067 184.543 573.316 184.58 573.57C184.448 573.349 184.343 573.113 184.267 572.867C184.072 572.346 183.824 571.669 183.499 570.823L180.75 563.271C178.418 556.904 175.162 548.103 171.423 538.455C167.684 528.807 164.141 520.11 161.562 513.834C160.259 510.749 159.256 508.236 158.514 506.4C158.175 505.567 157.901 504.903 157.693 504.369C157.595 504.137 157.517 503.897 157.458 503.653Z" fill="#263238"/>
<path d="M173.585 554.131C170.905 549.671 167.201 545.912 162.779 543.166C158.358 540.42 153.346 538.765 148.157 538.338C145.552 538.156 142.347 538.598 141.175 540.942C140.003 543.286 141.566 546.15 143.364 548.051C147.183 552.044 152.1 554.819 157.494 556.023C162.889 557.228 168.52 556.81 173.677 554.821" fill="#FFAC00"/>
<path d="M152.169 545.395C152.722 545.367 153.275 545.389 153.824 545.46C154.466 545.494 155.106 545.568 155.739 545.681C156.481 545.824 157.354 545.903 158.266 546.163C159.285 546.378 160.29 546.657 161.275 546.996C162.416 547.363 163.534 547.797 164.623 548.298C167.127 549.419 169.496 550.822 171.683 552.478C173.846 554.173 175.804 556.113 177.519 558.259C178.26 559.192 178.943 560.171 179.565 561.188C180.126 562.066 180.639 562.975 181.102 563.909C181.493 564.67 181.841 565.453 182.144 566.253C182.405 566.845 182.627 567.454 182.808 568.076C183.001 568.595 183.145 569.131 183.238 569.677C183.095 569.677 182.47 567.438 180.711 564.105C180.232 563.209 179.706 562.34 179.135 561.501C178.5 560.514 177.813 559.562 177.076 558.649C173.669 554.441 169.324 551.088 164.388 548.858C163.255 548.363 162.174 547.895 161.119 547.556C160.15 547.203 159.163 546.903 158.162 546.658C154.514 545.655 152.156 545.538 152.169 545.395Z" fill="#263238"/>
<path d="M743.489 137.335C739.659 138.207 737.796 142.621 737.432 146.527C737.067 150.433 737.562 154.573 735.92 158.141C734.071 162.151 729.655 165.12 729.511 169.533C729.42 172.229 731.022 174.741 730.944 177.463C730.814 181.889 726.307 185.275 726.059 189.649C725.89 192.839 728.013 195.886 727.505 199.037C727.114 201.484 725.2 203.411 724.392 205.755C722.79 210.442 726.007 215.585 730.189 218.215C732.531 219.687 735.167 220.63 737.912 220.979C740.658 221.327 743.446 221.071 746.082 220.231C748.718 219.39 751.139 217.984 753.175 216.111C755.211 214.238 756.814 211.944 757.87 209.388C760.189 203.763 759.681 197.422 759.173 191.368C757.61 172.48 756.446 153.567 755.682 134.627" fill="#263238"/>
<path d="M732.364 203.971C733.152 203.482 733.767 202.758 734.123 201.901C734.499 200.882 734.65 199.794 734.566 198.711C734.423 197.276 734.104 195.863 733.615 194.506C732.992 192.8 732.76 190.975 732.937 189.168C733.263 187.136 734.722 185.47 736.038 183.829C736.746 183.026 737.338 182.128 737.796 181.16C738.255 180.182 738.33 179.066 738.005 178.035C737.327 175.913 735.243 174.351 734.292 171.89C733.845 170.672 733.773 169.348 734.084 168.088C734.379 166.907 734.817 165.766 735.386 164.69C736.486 162.752 737.36 160.694 737.992 158.558C738.904 154.43 738.474 150.485 739.099 147.243C739.446 144.647 740.599 142.224 742.395 140.317C742.903 139.803 743.482 139.364 744.114 139.015C744.332 138.901 744.564 138.818 744.805 138.767C743.988 139.216 743.238 139.777 742.577 140.434C740.913 142.36 739.865 144.741 739.568 147.269C739.34 148.996 739.218 150.735 739.203 152.477C739.199 154.527 738.999 156.572 738.604 158.584C737.982 160.77 737.108 162.876 735.999 164.859C735.022 166.903 734.123 169.299 734.983 171.539C735.842 173.778 737.914 175.327 738.708 177.723C739.067 178.907 738.979 180.181 738.461 181.304C737.953 182.368 737.295 183.355 736.507 184.233C735.204 185.874 733.784 187.436 733.471 189.259C733.289 190.988 733.494 192.736 734.071 194.376C734.536 195.775 734.825 197.227 734.93 198.698C734.995 199.831 734.794 200.963 734.344 202.005C734.064 202.658 733.615 203.225 733.042 203.646C732.838 203.795 732.608 203.905 732.364 203.971Z" fill="#455A64"/>
<path d="M722.177 234.842L710.453 268.694L661.421 271.298L653.24 289.526L704.435 294.734C706.854 295.726 709.449 296.218 712.063 296.18C714.677 296.142 717.257 295.575 719.646 294.513C722.035 293.45 724.183 291.915 725.962 289.999C727.74 288.084 729.112 285.828 729.993 283.367L743.658 245.245L722.177 234.842Z" fill="#B78876"/>
<path d="M823.538 554.261C823.538 554.261 787.611 440.18 786.842 436.482C786.152 433.123 799.869 351.032 801.614 329.718L753.064 331.528V332.01L732.43 333.156L750.901 566.37H773.242L771.028 488.966C784.81 525.93 804.558 563.61 804.558 563.61L823.538 554.261Z" fill="#B78876"/>
<path d="M771.939 516.738C771.939 516.035 771.665 490.802 771.665 490.802C771.392 492.312 763.107 468.902 763.302 467.483C763.406 466.741 771.939 516.738 771.939 516.738Z" fill="#A36957"/>
<path d="M762.364 456.39C762.25 456.854 762.201 457.332 762.221 457.809C762.149 459.11 762.149 460.414 762.221 461.715C762.221 462.536 762.338 463.421 762.442 464.384C762.547 465.348 762.69 466.363 762.911 467.418C763.375 469.721 763.988 471.991 764.748 474.214C766.363 478.941 768.161 483.068 769.425 486.063C770.024 487.365 770.545 488.602 770.988 489.591C771.148 490.051 771.367 490.489 771.639 490.893C771.57 490.443 771.438 490.005 771.248 489.591C770.949 488.732 770.493 487.495 769.946 485.972C768.799 482.925 767.08 478.758 765.478 474.084C764.72 471.894 764.098 469.659 763.615 467.392C763.38 466.35 763.224 465.348 763.081 464.41C762.938 463.473 762.833 462.588 762.768 461.806C762.612 460.192 762.547 458.89 762.508 457.979C762.532 457.445 762.484 456.911 762.364 456.39Z" fill="#A36957"/>
<path d="M750.484 567.555V565.459L773.372 564.456L773.437 573.114L772.031 573.205C765.739 573.57 740.05 574.638 735.855 573.375C731.153 571.969 750.484 567.555 750.484 567.555Z" fill="#455A64"/>
<path d="M773.737 572.594C773.607 572.602 773.476 572.602 773.346 572.594L772.226 572.672L768.083 572.854C764.592 572.997 759.759 573.127 754.431 573.153C749.103 573.179 744.257 573.088 740.753 572.984L736.624 572.815H735.49H735.1C735.23 572.804 735.36 572.804 735.49 572.815H736.624L740.766 572.893C744.257 572.893 749.09 572.997 754.418 572.971C759.746 572.945 764.592 572.854 768.083 572.763L772.226 572.659H773.737V572.594Z" fill="#263238"/>
<path d="M743.02 573.323C742.83 572.642 742.568 571.982 742.238 571.357C741.826 570.78 741.35 570.251 740.818 569.781C741.529 570.035 742.12 570.546 742.473 571.213C742.904 571.828 743.098 572.577 743.02 573.323Z" fill="#263238"/>
<path d="M749.768 569.898C749.768 569.898 749.39 569.547 749.051 569.026C748.713 568.505 748.504 568.05 748.57 568.011C748.635 567.971 748.947 568.349 749.286 568.87C749.625 569.391 749.833 569.859 749.768 569.898Z" fill="#263238"/>
<path d="M751.618 568.974C751.618 569.039 751.201 568.792 750.81 568.44C750.419 568.089 750.133 567.763 750.185 567.711C750.237 567.659 750.602 567.893 750.992 568.245C751.383 568.596 751.67 568.857 751.618 568.974Z" fill="#263238"/>
<path d="M752.777 566.761C752.395 566.901 751.985 566.954 751.579 566.917C751.18 566.97 750.774 566.93 750.394 566.8C750.772 566.66 751.177 566.607 751.579 566.643C751.982 566.588 752.393 566.629 752.777 566.761Z" fill="#263238"/>
<path d="M753.168 565.25C752.78 565.502 752.328 565.638 751.865 565.641C751.422 565.699 750.972 565.636 750.562 565.459C750.993 565.386 751.429 565.351 751.865 565.354C752.295 565.278 752.731 565.243 753.168 565.25Z" fill="#263238"/>
<path d="M748.999 567.906C748.513 567.997 748.014 567.997 747.527 567.906C747.001 567.843 746.482 567.729 745.977 567.568C745.665 567.481 745.363 567.359 745.078 567.203C744.905 567.101 744.775 566.939 744.714 566.748C744.69 566.639 744.698 566.526 744.737 566.422C744.777 566.318 744.845 566.227 744.935 566.162C745.296 565.987 745.691 565.895 746.092 565.891C746.493 565.887 746.889 565.973 747.253 566.141C747.617 566.309 747.939 566.556 748.196 566.863C748.453 567.171 748.638 567.532 748.739 567.919C748.765 568.048 748.765 568.181 748.739 568.31C748.591 567.84 748.362 567.399 748.062 567.008C747.715 566.618 747.262 566.338 746.759 566.201C746.182 566.015 745.556 566.061 745.013 566.331C744.792 566.5 744.883 566.774 745.131 566.93C745.396 567.074 745.676 567.191 745.964 567.281C746.454 567.442 746.955 567.569 747.462 567.659C748.439 567.867 748.999 567.867 748.999 567.906Z" fill="#263238"/>
<path d="M748.622 567.984C748.432 567.682 748.366 567.318 748.439 566.969C748.487 566.586 748.625 566.22 748.843 565.901C748.965 565.684 749.14 565.501 749.352 565.369C749.564 565.237 749.805 565.16 750.055 565.146C750.202 565.18 750.331 565.269 750.416 565.395C750.5 565.521 750.534 565.674 750.51 565.823C750.478 566.056 750.394 566.279 750.263 566.474C750.065 566.797 749.834 567.098 749.573 567.373C749.346 567.632 749.06 567.833 748.739 567.958C748.739 567.958 749.025 567.698 749.429 567.229C749.664 566.961 749.869 566.669 750.042 566.357C750.237 566.044 750.38 565.485 750.042 565.42C749.703 565.354 749.312 565.758 749.091 566.045C748.883 566.327 748.741 566.651 748.674 566.995C748.621 567.322 748.603 567.654 748.622 567.984Z" fill="#263238"/>
<path d="M773.255 566.37C773.255 566.37 772.604 566.37 771.575 566.435C770.235 566.596 768.967 567.128 767.914 567.973C766.862 568.818 766.068 569.94 765.622 571.213C765.283 572.19 765.257 572.854 765.205 572.841C765.153 572.828 765.205 572.672 765.205 572.385C765.238 571.966 765.317 571.551 765.439 571.148C765.854 569.816 766.651 568.634 767.732 567.75C768.827 566.883 770.156 566.361 771.549 566.253C771.981 566.201 772.419 566.201 772.851 566.253C772.991 566.274 773.126 566.314 773.255 566.37Z" fill="#263238"/>
<path d="M762.299 570.771C761.207 571.025 760.085 571.135 758.964 571.096C757.849 571.152 756.732 571.056 755.643 570.81C755.643 570.732 757.128 570.81 758.964 570.81C760.801 570.81 762.286 570.693 762.299 570.771Z" fill="#263238"/>
<path d="M766.755 570.732C766.755 570.732 766.638 571.044 766.482 571.383C766.325 571.721 766.247 572.034 766.169 572.021C766.091 572.008 766.052 571.669 766.234 571.266C766.416 570.862 766.703 570.667 766.755 570.732Z" fill="#263238"/>
<path d="M768.435 568.635C768.435 568.635 768.344 568.922 768.11 569.156C767.875 569.391 767.641 569.547 767.575 569.495C767.51 569.443 767.667 569.208 767.901 568.961C768.136 568.714 768.37 568.57 768.435 568.635Z" fill="#263238"/>
<path d="M770.832 567.672C770.832 567.75 770.52 567.75 770.181 567.867C769.842 567.984 769.608 568.167 769.543 568.115C769.477 568.063 769.673 567.75 770.09 567.607C770.507 567.464 770.858 567.594 770.832 567.672Z" fill="#263238"/>
<path d="M772.538 567.203C772.538 567.281 772.447 567.399 772.252 567.464C772.056 567.529 771.887 567.542 771.861 567.464C771.835 567.386 771.965 567.268 772.147 567.203C772.33 567.138 772.512 567.138 772.538 567.203Z" fill="#263238"/>
<path d="M804.102 565.537L803.242 563.623L823.707 553.35L827.316 561.162L826.013 561.826C820.425 564.729 797.433 576.213 793.082 576.786C788.275 577.476 804.102 565.537 804.102 565.537Z" fill="#455A64"/>
<path d="M827.394 560.602L827.055 560.81L826.052 561.331L822.353 563.206C819.226 564.756 814.875 566.852 810.016 569.065C805.157 571.279 800.702 573.166 797.472 574.507L793.629 576.057L792.587 576.46C792.467 576.516 792.34 576.556 792.209 576.578L792.561 576.408L793.59 575.953L797.394 574.325C800.611 572.945 805.04 571.018 809.899 568.805C814.758 566.591 819.122 564.534 822.275 563.024L826 561.24L827.029 560.758L827.394 560.602Z" fill="#263238"/>
<path d="M799.712 573.843C799.261 573.294 798.749 572.796 798.188 572.359C797.577 571.998 796.926 571.709 796.247 571.5C796.995 571.49 797.728 571.709 798.348 572.128C798.967 572.547 799.443 573.146 799.712 573.843Z" fill="#263238"/>
<path d="M804.415 567.958C804.415 567.958 803.92 567.802 803.399 567.464C802.878 567.125 802.5 566.8 802.539 566.735C802.578 566.669 803.034 566.891 803.555 567.229C804.076 567.568 804.454 567.893 804.415 567.958Z" fill="#263238"/>
<path d="M805.691 566.37C805.691 566.435 805.248 566.37 804.74 566.214C804.232 566.058 803.854 565.862 803.868 565.784C804.197 565.753 804.529 565.807 804.831 565.94C805.326 566.058 805.717 566.24 805.691 566.37Z" fill="#263238"/>
<path d="M805.873 563.87C805.873 563.948 805.443 564.222 804.844 564.508C804.499 564.716 804.112 564.844 803.711 564.886C803.711 564.808 804.141 564.534 804.727 564.248C805.078 564.041 805.469 563.912 805.873 563.87Z" fill="#263238"/>
<path d="M805.614 562.334C805.614 562.334 805.236 562.855 804.559 563.232C804.175 563.493 803.72 563.629 803.256 563.623C803.629 563.372 804.026 563.158 804.441 562.985C805.08 562.633 805.549 562.269 805.614 562.334Z" fill="#263238"/>
<path d="M802.943 566.474C802.546 566.747 802.105 566.949 801.64 567.073C801.128 567.222 800.606 567.331 800.077 567.399C799.757 567.438 799.433 567.438 799.113 567.399C798.912 567.384 798.725 567.29 798.592 567.138C798.531 567.045 798.499 566.937 798.499 566.826C798.499 566.715 798.531 566.606 798.592 566.513C798.988 566.034 799.538 565.707 800.149 565.588C800.76 565.469 801.393 565.566 801.94 565.862C802.263 566.031 802.547 566.266 802.773 566.552C802.93 566.761 802.995 566.891 802.982 566.904C802.661 566.546 802.277 566.25 801.848 566.031C801.39 565.816 800.878 565.739 800.376 565.81C800.078 565.841 799.789 565.931 799.525 566.074C799.261 566.217 799.028 566.41 798.839 566.643C798.696 566.891 798.839 567.099 799.191 567.138C799.49 567.164 799.791 567.164 800.09 567.138C800.608 567.086 801.122 566.995 801.627 566.865C802.369 566.656 802.943 566.435 802.943 566.474Z" fill="#263238"/>
<path d="M802.578 566.696C802.288 566.489 802.084 566.183 802.005 565.836C801.891 565.47 801.864 565.082 801.927 564.703C801.949 564.454 802.035 564.213 802.177 564.006C802.318 563.799 802.51 563.631 802.735 563.519C803.06 563.414 803.816 564.078 803.868 564.326C803.92 564.573 803.49 564.443 803.464 564.651C803.422 565.021 803.334 565.384 803.204 565.732C803.109 566.067 802.929 566.372 802.682 566.617C802.682 566.617 802.839 566.266 803.021 565.68C803.115 565.334 803.18 564.982 803.217 564.625C803.217 564.261 803.217 563.701 802.8 563.792C802.383 563.883 802.266 564.391 802.174 564.756C802.095 565.094 802.095 565.446 802.174 565.784C802.282 566.099 802.417 566.404 802.578 566.696Z" fill="#263238"/>
<path d="M824.398 555.121C824.398 555.121 823.773 555.342 822.887 555.876C821.729 556.568 820.786 557.569 820.164 558.766C819.562 559.975 819.305 561.327 819.422 562.672C819.5 563.714 819.748 564.313 819.695 564.339C819.611 564.21 819.545 564.07 819.5 563.922C819.371 563.524 819.279 563.114 819.226 562.698C819.04 561.312 819.28 559.901 819.916 558.655C820.551 557.408 821.551 556.384 822.783 555.72C823.151 555.516 823.54 555.35 823.942 555.225C824.088 555.168 824.242 555.133 824.398 555.121Z" fill="#263238"/>
<path d="M816.204 563.636C814.367 564.912 812.315 565.847 810.146 566.396C810.146 566.318 811.514 565.797 813.182 565.094C814.849 564.391 816.165 563.571 816.204 563.636Z" fill="#263238"/>
<path d="M820.256 561.774C820.321 561.774 820.256 562.099 820.256 562.477C820.256 562.855 820.256 563.167 820.256 563.193C820.256 563.219 819.995 562.907 819.995 562.477C819.995 562.047 820.19 561.735 820.256 561.774Z" fill="#263238"/>
<path d="M820.92 559.17C820.985 559.17 820.92 559.469 820.842 559.782C820.764 560.094 820.568 560.329 820.503 560.303C820.438 560.277 820.503 560.003 820.581 559.691C820.66 559.378 820.842 559.144 820.92 559.17Z" fill="#263238"/>
<path d="M822.717 557.256C822.717 557.334 822.457 557.451 822.196 557.699C821.936 557.946 821.792 558.206 821.727 558.18C821.662 558.154 821.727 557.79 822.014 557.49C822.3 557.191 822.704 557.256 822.717 557.256Z" fill="#263238"/>
<path d="M824.085 556.188C824.085 556.188 824.085 556.397 823.929 556.54C823.773 556.683 823.629 556.761 823.577 556.709C823.525 556.657 823.577 556.501 823.733 556.358C823.89 556.214 824.033 556.136 824.085 556.188Z" fill="#263238"/>
<path d="M798.462 291.179L794.658 244.698L814.198 245.049C814.198 245.049 815.097 238.188 812.218 223.163C810.447 213.945 804.311 208.294 797.42 204.935V204.805L796.821 204.648C791.148 202.103 785.09 200.523 778.896 199.974L754.862 200.248C754.862 200.248 736.507 197.904 726.385 211.041C722.477 216.08 710.35 250.57 710.35 250.57L739.204 264.449L736.507 245.323C736.507 245.323 737.054 259.189 738.826 263.551C739.803 265.999 742.734 273.602 742.734 273.602L742.356 296.544L798.462 291.179Z" fill="#FFAC00"/>
<path d="M785.214 237.954L781.645 253.135H815.292L813.078 227.668L785.214 237.954Z" fill="#FFAC00"/>
<path d="M815.292 253.135C813.822 252.864 812.332 252.716 810.837 252.692C808.075 252.536 804.324 252.393 800.051 252.419C795.778 252.445 792.013 252.627 789.252 252.835C787.758 252.887 786.271 253.07 784.81 253.382C786.301 253.501 787.799 253.501 789.291 253.382C792.039 253.291 795.804 253.187 800.051 253.174C804.297 253.161 808.062 253.174 810.824 253.239C812.314 253.322 813.808 253.288 815.292 253.135Z" fill="#263238"/>
<path d="M783.754 227.551C783.594 228.846 783.559 230.154 783.65 231.457C783.65 233.839 783.754 237.12 783.898 240.753C784.041 244.385 784.21 247.679 784.367 250.049C784.373 251.362 784.513 252.671 784.783 253.955C784.943 252.659 784.978 251.351 784.888 250.049C784.888 247.666 784.783 244.372 784.64 240.74C784.497 237.107 784.327 233.826 784.171 231.444C784.166 230.135 784.026 228.831 783.754 227.551Z" fill="#263238"/>
<g opacity="0.3">
<path d="M753.142 240.701C753.142 240.701 760.619 296.127 781.644 294.656C781.644 294.656 791.114 294.551 794.15 288.263V285.789L753.142 240.701Z" fill="black"/>
</g>
<g opacity="0.3">
<path d="M783.755 230.819L779.729 257.991L782.335 262.757L786.634 253.434L784.81 253.382L783.755 230.819Z" fill="black"/>
</g>
<path d="M742.617 273.628C742.367 273.223 742.174 272.784 742.044 272.326C741.718 271.48 741.288 270.243 740.741 268.694C739.436 264.657 738.362 260.549 737.523 256.39C736.687 252.229 736.156 248.012 735.934 243.773C735.856 242.146 735.83 240.831 735.856 239.867C735.822 239.397 735.853 238.924 735.947 238.461C736.051 238.461 736.129 240.466 736.403 243.669C736.77 247.869 737.365 252.046 738.188 256.182C739.152 261.025 740.311 265.361 741.197 268.472C741.614 269.918 741.965 271.155 742.252 272.17C742.431 272.64 742.553 273.13 742.617 273.628Z" fill="#263238"/>
<path d="M751.11 289.552C750.928 289.552 750.407 288.419 749.951 286.948C749.558 286.046 749.384 285.065 749.443 284.083C750.017 284.879 750.413 285.79 750.602 286.752C750.976 287.637 751.149 288.593 751.11 289.552Z" fill="#263238"/>
<path d="M754.014 289.343C753.029 286.732 752.988 283.858 753.897 281.219C753.999 282.571 753.999 283.929 753.897 285.281C754.039 286.63 754.078 287.988 754.014 289.343Z" fill="#263238"/>
<path d="M739.789 265.087C739.698 265.243 732.989 262.067 724.795 257.978C716.602 253.89 710.023 250.427 710.101 250.257C710.179 250.088 716.901 253.278 725.095 257.366C733.289 261.455 739.867 264.918 739.789 265.087Z" fill="#263238"/>
<path d="M751.618 204.74C751.761 198.151 751.801 191.225 751.801 191.225C751.801 191.225 743.346 189.597 741.874 178.478C740.467 167.88 744.401 142.999 744.401 142.999C756.751 138.338 769.582 142.569 778.036 152.568L775.939 206.042C775.691 212.252 770.155 216.991 763.512 216.679C756.79 216.353 751.475 211.015 751.618 204.74Z" fill="#B78876"/>
<path d="M743.75 162.88C743.738 163.245 743.867 163.601 744.109 163.874C744.351 164.148 744.689 164.318 745.052 164.351C745.237 164.369 745.424 164.349 745.601 164.293C745.778 164.236 745.941 164.144 746.081 164.022C746.222 163.9 746.335 163.751 746.416 163.584C746.497 163.417 746.543 163.235 746.55 163.049C746.562 162.686 746.433 162.332 746.19 162.06C745.948 161.789 745.611 161.621 745.248 161.591C745.062 161.563 744.873 161.575 744.692 161.627C744.512 161.679 744.345 161.769 744.203 161.892C744.06 162.014 743.946 162.166 743.868 162.336C743.79 162.507 743.749 162.693 743.75 162.88Z" fill="#263238"/>
<path d="M743.229 161.018C743.398 161.201 744.531 160.432 746.03 160.485C747.528 160.537 748.635 161.318 748.817 161.136C749 160.953 748.739 160.719 748.257 160.341C747.605 159.869 746.822 159.61 746.016 159.599C745.223 159.569 744.441 159.797 743.789 160.25C743.307 160.602 743.138 160.927 743.229 161.018Z" fill="#263238"/>
<path d="M759.265 163.844C759.25 164.21 759.378 164.567 759.62 164.841C759.863 165.115 760.202 165.285 760.567 165.315C760.754 165.343 760.945 165.331 761.126 165.278C761.308 165.225 761.475 165.134 761.618 165.01C761.76 164.886 761.874 164.733 761.951 164.561C762.029 164.389 762.068 164.202 762.066 164.013C762.08 163.648 761.952 163.293 761.709 163.021C761.466 162.748 761.127 162.581 760.763 162.555C760.577 162.527 760.388 162.539 760.207 162.591C760.027 162.643 759.86 162.733 759.718 162.855C759.575 162.978 759.461 163.129 759.383 163.3C759.305 163.471 759.265 163.656 759.265 163.844Z" fill="#263238"/>
<path d="M759.16 161.982C759.329 162.177 760.463 161.409 761.961 161.448C763.459 161.487 764.566 162.281 764.761 162.099C764.957 161.917 764.67 161.682 764.188 161.318C763.546 160.833 762.765 160.568 761.961 160.563C761.164 160.539 760.38 160.767 759.72 161.214C759.251 161.565 759.082 161.891 759.16 161.982Z" fill="#263238"/>
<path d="M753.324 173.166C752.525 172.891 751.693 172.721 750.849 172.658C750.459 172.658 750.094 172.515 750.042 172.255C750.01 171.848 750.111 171.441 750.328 171.096L751.553 168.166C752.692 165.677 753.629 163.099 754.353 160.458C753.019 162.851 751.878 165.346 750.941 167.919C750.537 168.948 750.133 169.937 749.755 170.874C749.502 171.34 749.419 171.878 749.521 172.398C749.572 172.539 749.655 172.666 749.763 172.77C749.872 172.874 750.003 172.952 750.146 172.997C750.362 173.059 750.585 173.094 750.81 173.101C751.642 173.229 752.487 173.251 753.324 173.166Z" fill="#263238"/>
<path d="M751.8 191.225C757.011 191.433 762.179 190.194 766.728 187.644C766.728 187.644 762.938 195.157 751.878 193.842L751.8 191.225Z" fill="#A36957"/>
<path d="M764.059 157.542C763.746 158.024 762.574 157.815 761.271 157.542C759.968 157.269 758.822 157.047 758.666 156.487C758.509 155.928 759.877 155.185 761.623 155.537C763.368 155.888 764.371 157.125 764.059 157.542Z" fill="#263238"/>
<path d="M748.856 155.329C748.739 155.888 747.488 156.097 746.055 156.162C744.623 156.227 743.359 156.162 743.19 155.589C743.02 155.016 744.232 154.209 745.964 154.131C747.697 154.053 748.973 154.795 748.856 155.329Z" fill="#263238"/>
<path d="M753.35 176.825C753.185 176.786 753.013 176.803 752.859 176.874C752.706 176.945 752.58 177.065 752.503 177.215C752.429 177.348 752.391 177.498 752.393 177.65C752.394 177.802 752.436 177.951 752.513 178.082C752.59 178.213 752.7 178.322 752.832 178.398C752.964 178.473 753.113 178.513 753.265 178.513C753.417 178.513 753.567 178.473 753.699 178.398C753.831 178.322 753.941 178.213 754.018 178.082C754.095 177.951 754.136 177.802 754.138 177.65C754.14 177.498 754.102 177.348 754.027 177.215C753.934 177.04 753.784 176.902 753.601 176.824C753.419 176.746 753.215 176.733 753.024 176.786" fill="#A36957"/>
<path d="M753.702 176.981C753.702 176.916 753.455 176.538 752.79 176.681C752.592 176.733 752.41 176.836 752.264 176.98C752.117 177.124 752.011 177.304 751.957 177.502C751.887 177.751 751.893 178.015 751.974 178.261C752.055 178.507 752.208 178.723 752.412 178.882C752.629 179.03 752.886 179.11 753.148 179.11C753.411 179.11 753.668 179.03 753.885 178.882C754.058 178.765 754.194 178.601 754.277 178.41C754.36 178.218 754.387 178.007 754.353 177.801C754.223 177.111 753.715 177.007 753.689 177.098C753.663 177.189 753.871 177.424 753.832 177.827C753.824 177.927 753.791 178.023 753.736 178.107C753.682 178.191 753.607 178.26 753.52 178.309C753.419 178.367 753.304 178.398 753.188 178.398C753.071 178.398 752.956 178.367 752.855 178.309C752.765 178.232 752.695 178.133 752.654 178.021C752.613 177.909 752.602 177.788 752.621 177.671C752.636 177.568 752.676 177.47 752.737 177.386C752.798 177.303 752.879 177.235 752.973 177.189C753.337 176.968 753.663 177.072 753.702 176.981Z" fill="#263238"/>
<path d="M772.981 165.627C771.679 168.674 768.448 171.031 768.891 174.325C769.178 176.447 770.545 178.426 770.285 180.561C769.946 183.165 767.171 185.092 766.768 187.761C766.286 191.029 769.477 193.568 770.741 196.615C772.604 201.068 770.233 206.068 770.168 210.937C770.244 214.634 771.659 218.178 774.15 220.912C776.642 223.646 780.04 225.385 783.715 225.806C786.685 226.053 790.033 225.155 791.531 222.603C792.834 220.494 792.547 217.812 793.303 215.481C794.449 211.992 797.771 209.44 798.514 205.846C799.816 199.336 791.87 193.868 792.391 187.202C792.613 184.35 794.371 181.876 795.114 179.116C795.586 177.302 795.623 175.402 795.22 173.571C794.817 171.74 793.986 170.031 792.795 168.583C790.828 166.252 787.988 164.677 786.282 162.177C784.393 159.3 784.328 155.667 783.676 152.269C782.802 148.138 780.894 144.297 778.13 141.104C775.367 137.91 771.839 135.469 767.875 134.009C763.912 132.549 759.643 132.116 755.467 132.753C751.291 133.389 747.345 135.073 743.997 137.647C743.997 137.647 742.108 146.228 750.927 147.673C759.746 149.118 763.824 147.451 764.814 150.98C764.58 152.433 764.695 153.922 765.148 155.322C765.601 156.723 766.379 157.997 767.419 159.039C771.014 162.919 774.44 162.086 772.981 165.627Z" fill="#263238"/>
<path d="M786.985 225.142C786.713 225.151 786.442 225.125 786.177 225.064C785.413 224.928 784.663 224.724 783.936 224.452C781.247 223.421 778.887 221.679 777.111 219.413C775.865 217.849 774.887 216.089 774.219 214.205C773.458 212.059 773.057 209.802 773.033 207.526C773.006 205.017 773.322 202.515 773.971 200.091C774.326 198.811 774.761 197.554 775.274 196.329C775.812 195.108 776.285 193.861 776.694 192.592C777.052 191.341 777.052 190.015 776.694 188.764C776.312 187.533 775.82 186.339 775.222 185.196C774.618 184.064 774.108 182.884 773.698 181.668C773.296 180.465 773.203 179.18 773.424 177.931C773.945 175.484 775.43 173.661 776.316 171.799C777.16 170.075 777.562 168.17 777.488 166.252C777.37 163.447 776.351 160.753 774.583 158.571C773.898 157.806 773.163 157.088 772.382 156.422C773.295 156.935 774.111 157.605 774.792 158.401C776.689 160.581 777.807 163.329 777.97 166.213C778.078 168.214 777.684 170.21 776.824 172.02C775.925 173.947 774.479 175.783 774.036 178.022C773.593 180.262 774.648 182.619 775.808 184.884C776.44 186.059 776.955 187.293 777.345 188.569C777.73 189.931 777.73 191.373 777.345 192.735C776.912 194.049 776.412 195.339 775.847 196.602C775.335 197.801 774.9 199.032 774.544 200.287C773.898 202.649 773.578 205.089 773.593 207.539C773.553 211.71 774.9 215.777 777.423 219.101C779.11 221.339 781.357 223.094 783.936 224.191C785.877 224.947 786.998 225.064 786.985 225.142Z" fill="#455A64"/>
<path d="M785.683 159.443C785.048 159.607 784.397 159.703 783.742 159.729C781.954 159.92 780.149 159.872 778.375 159.586C777.03 159.387 775.738 158.922 774.574 158.218C773.411 157.513 772.4 156.584 771.601 155.485C770.856 154.094 770.262 152.627 769.829 151.11C769.273 149.595 768.228 148.307 766.859 147.451C764.006 145.642 760.658 145.42 757.74 145.069C755.049 144.935 752.436 144.119 750.146 142.699C748.612 141.684 747.505 140.141 747.033 138.364C746.919 137.882 746.888 137.384 746.941 136.892C746.941 136.554 747.02 136.384 747.046 136.384C747.061 137.029 747.144 137.671 747.293 138.298C747.832 139.96 748.939 141.38 750.42 142.309C752.667 143.619 755.205 144.353 757.806 144.444C760.724 144.782 764.189 144.952 767.237 146.879C768.729 147.815 769.865 149.221 770.468 150.876C770.876 152.354 771.439 153.786 772.148 155.146C773.665 157.227 775.938 158.629 778.479 159.052C780.196 159.371 781.945 159.489 783.69 159.404C784.354 159.367 785.02 159.38 785.683 159.443Z" fill="#455A64"/>
<path d="M782.452 148.845C781.961 149.009 781.445 149.084 780.928 149.066C778.5 149.082 776.162 148.148 774.415 146.462C773.618 145.663 772.938 144.756 772.395 143.767C771.223 141.788 770.09 139.353 767.654 138.338C765.307 137.551 762.807 137.332 760.359 137.7C758.293 137.99 756.198 137.99 754.132 137.7C752.695 137.5 751.342 136.905 750.224 135.981C749.935 135.729 749.681 135.44 749.469 135.122C749.312 134.896 749.247 134.779 749.273 134.77C749.273 134.77 749.638 135.187 750.393 135.773C751.507 136.564 752.801 137.066 754.158 137.231C756.186 137.459 758.235 137.424 760.255 137.127C762.81 136.71 765.428 136.933 767.875 137.778C769.133 138.343 770.21 139.244 770.989 140.382C771.675 141.397 772.306 142.449 772.877 143.532C773.391 144.479 774.026 145.354 774.766 146.136C775.42 146.798 776.171 147.356 776.994 147.79C778.206 148.422 779.537 148.791 780.902 148.871C781.905 148.858 782.439 148.78 782.452 148.845Z" fill="#455A64"/>
<path d="M790.867 222.33C790.802 222.33 791.218 221.47 791.7 219.856C792.353 217.589 792.643 215.234 792.56 212.877C792.466 209.388 791.513 205.976 789.786 202.943C788.835 201.237 787.389 199.714 786.203 197.839C785.576 196.884 785.134 195.819 784.901 194.701C784.695 193.524 784.794 192.314 785.187 191.186C785.917 188.933 787.219 187.045 787.506 184.975C787.793 182.905 786.802 181.069 785.812 179.337C785.302 178.495 784.837 177.626 784.419 176.733C784.037 175.868 783.787 174.951 783.676 174.012C783.554 172.358 783.606 170.695 783.832 169.052C784.249 166.729 784.033 164.336 783.207 162.125C782.838 161.35 782.315 160.659 781.67 160.094C781.67 160.094 781.735 160.094 781.826 160.172C781.981 160.249 782.121 160.35 782.243 160.471C782.753 160.896 783.166 161.424 783.455 162.021C784.397 164.251 784.69 166.701 784.301 169.091C784.122 170.704 784.1 172.33 784.236 173.947C784.558 175.766 785.278 177.492 786.347 178.999C786.902 179.879 787.377 180.807 787.766 181.772C788.177 182.814 788.311 183.944 788.157 185.053C787.845 187.332 786.503 189.259 785.825 191.381C785.47 192.405 785.376 193.501 785.552 194.571C785.779 195.605 786.194 196.589 786.776 197.474C787.884 199.284 789.382 200.833 790.333 202.617C792.078 205.753 793.009 209.276 793.042 212.864C793.083 215.266 792.713 217.657 791.948 219.934C791.74 220.55 791.487 221.151 791.192 221.731C791.113 221.945 791.003 222.146 790.867 222.33Z" fill="#455A64"/>
<path d="M737.809 464.931C737.809 464.931 729.029 381.812 728.521 351.097C728.013 320.383 742.342 290.073 742.342 290.073L798.461 287.742C798.461 287.742 809.56 318.899 809.755 332.01C810.146 357.451 802.994 382.567 803.815 402.748L805.691 464.983" fill="#263238"/>
<path d="M807.58 362.737C807.287 362.991 806.978 363.226 806.655 363.44L806.147 363.792L805.6 364.326C805.118 364.743 804.681 365.21 804.297 365.719C802.487 367.932 801.171 371.903 799.907 376.838C799.262 379.575 798.309 382.231 797.068 384.754C796.69 385.445 796.254 386.103 795.765 386.72C795.53 387.033 795.309 387.371 795.035 387.671L794.176 388.53C792.944 389.68 791.514 390.597 789.955 391.238C786.816 392.618 783.259 393.269 780.029 394.897C776.719 396.676 774.162 399.588 772.825 403.099C771.236 406.628 770.22 410.325 768.917 413.789C767.614 417.252 765.856 420.559 763.055 422.668C760.377 424.528 757.197 425.532 753.936 425.546C750.914 425.728 748.113 425.637 745.599 426.014C743.337 426.249 741.173 427.065 739.32 428.384C737.967 429.442 736.953 430.872 736.402 432.498C736.053 433.524 735.977 434.624 736.181 435.688C736.337 436.417 736.533 436.769 736.494 436.782C736.284 436.455 736.134 436.094 736.051 435.714C735.776 434.628 735.812 433.487 736.155 432.42C736.673 430.713 737.694 429.202 739.086 428.085C740.986 426.652 743.235 425.753 745.599 425.481C748.205 425.064 750.979 425.116 753.962 424.921C757.128 424.9 760.212 423.919 762.807 422.108C765.44 419.809 767.383 416.826 768.422 413.489C769.725 410.065 770.676 406.354 772.33 402.761C773.732 399.105 776.405 396.078 779.859 394.233C783.22 392.566 786.777 391.928 789.838 390.6C791.336 389.98 792.713 389.098 793.902 387.996L794.723 387.176C794.983 386.889 795.205 386.564 795.439 386.264C795.899 385.672 796.304 385.041 796.651 384.376C797.899 381.888 798.864 379.268 799.53 376.564C800.832 371.643 802.252 367.62 804.167 365.393C804.548 364.886 804.985 364.423 805.47 364.013C805.678 363.831 805.861 363.649 806.043 363.505L806.577 363.167C806.902 363.004 807.237 362.86 807.58 362.737Z" fill="#FAFAFA"/>
<path d="M807.919 324.276C807.979 324.642 808.005 325.012 807.998 325.383C807.993 326.458 807.862 327.529 807.607 328.573C806.485 332.381 804.281 335.783 801.263 338.364C799.271 340.194 797.087 341.805 794.749 343.168C792.235 344.652 789.461 346.072 786.608 347.686C783.611 349.292 780.821 351.255 778.297 353.532C775.708 356.1 773.576 359.089 771.992 362.373C770.394 365.701 768.571 368.915 766.534 371.994C765.498 373.429 764.301 374.74 762.964 375.9C761.647 377.02 760.199 377.978 758.653 378.752C755.854 380.126 752.937 381.246 749.938 382.098C747.15 382.957 744.545 383.725 742.278 384.702C740.221 385.52 738.263 386.568 736.442 387.827C735.072 388.777 733.84 389.911 732.782 391.199C731.895 392.315 731.156 393.541 730.58 394.845C730.673 394.484 730.795 394.131 730.945 393.79C731.372 392.806 731.919 391.879 732.573 391.03C733.612 389.688 734.841 388.504 736.221 387.514C738.05 386.211 740.021 385.119 742.096 384.259C744.605 383.237 747.166 382.346 749.768 381.59C752.725 380.718 755.601 379.594 758.366 378.231C759.832 377.466 761.209 376.541 762.469 375.471C763.755 374.327 764.908 373.043 765.908 371.643C767.918 368.579 769.723 365.387 771.314 362.086C772.949 358.73 775.152 355.681 777.828 353.076C780.396 350.765 783.24 348.78 786.295 347.165C789.161 345.564 791.936 344.171 794.45 342.699C796.781 341.382 798.964 339.819 800.963 338.038C803.956 335.534 806.178 332.235 807.372 328.521C807.707 327.13 807.89 325.707 807.919 324.276Z" fill="#FAFAFA"/>
<path d="M728.808 355.446C728.757 355.365 728.717 355.278 728.691 355.186C728.593 354.935 728.511 354.678 728.444 354.417C728.22 353.382 728.265 352.306 728.574 351.293C729.303 348.689 732.182 345.342 736.82 343.689C739.138 342.895 741.757 342.387 744.492 341.71C746.764 341.334 748.913 340.42 750.76 339.045C752.607 337.671 754.098 335.874 755.109 333.807C755.85 332.289 756.498 330.728 757.05 329.133C758.069 325.667 759.453 322.319 761.18 319.146C763.158 316.027 766.161 313.694 769.673 312.545C772.868 311.509 776.127 310.683 779.43 310.071C782.377 309.506 785.231 308.533 787.91 307.181C790.179 305.885 792.136 304.107 793.642 301.973C795.866 298.891 797.135 295.224 797.289 291.427C797.295 290.033 797.204 288.641 797.016 287.26C797.41 288.613 797.59 290.019 797.55 291.427C797.499 295.306 796.273 299.078 794.033 302.246C792.508 304.451 790.509 306.288 788.184 307.624C785.469 309.026 782.571 310.038 779.573 310.631C776.301 311.252 773.073 312.083 769.907 313.118C766.536 314.222 763.653 316.464 761.753 319.459C760.054 322.589 758.687 325.888 757.675 329.302C757.113 330.927 756.447 332.514 755.682 334.054C754.911 335.534 753.928 336.894 752.764 338.09C750.477 340.176 747.661 341.594 744.623 342.192C741.861 342.895 739.256 343.337 736.976 344.093C732.456 345.629 729.59 348.793 728.821 351.319C728.506 352.293 728.421 353.327 728.574 354.339C728.684 354.701 728.762 355.071 728.808 355.446Z" fill="#FAFAFA"/>
<path d="M803.099 425.754C803.152 426.024 803.182 426.299 803.19 426.574C803.215 427.363 803.132 428.152 802.943 428.918C802.124 431.741 800.392 434.214 798.018 435.949C796.434 437.211 794.68 438.245 792.808 439.021C790.815 439.868 788.613 440.545 786.294 441.261C783.887 441.964 781.533 442.834 779.247 443.865C776.873 444.999 774.744 446.587 772.981 448.539C771.079 450.518 769.438 452.692 767.614 454.619C765.87 456.486 763.843 458.067 761.609 459.307C757.806 461.38 753.552 462.489 749.221 462.535C746.319 462.567 743.435 462.086 740.701 461.116C739.959 460.861 739.236 460.552 738.539 460.192C738.285 460.087 738.044 459.951 737.822 459.788C738.085 459.86 738.342 459.952 738.591 460.062C739.306 460.367 740.037 460.637 740.779 460.869C743.509 461.724 746.361 462.125 749.221 462.054C753.457 461.944 757.604 460.814 761.309 458.76C763.474 457.534 765.438 455.984 767.132 454.164C768.917 452.263 770.545 450.101 772.486 448.07C774.353 446.045 776.602 444.407 779.104 443.253C781.423 442.218 783.813 441.347 786.255 440.649C788.548 439.946 790.737 439.347 792.769 438.488C794.586 437.744 796.295 436.758 797.849 435.558C800.183 433.91 801.924 431.554 802.812 428.84C803.004 427.822 803.1 426.789 803.099 425.754Z" fill="#FAFAFA"/>
<path d="M796.703 253.187L785.839 253.447C785.421 255.637 784.59 257.727 783.39 259.606C774.271 243.852 767.276 222.759 765.53 214.283C765.791 213.437 766.091 212.499 766.468 211.458C766.739 209.876 766.69 208.255 766.325 206.693C766.012 204.805 765.491 202.266 765.335 201.094C764.853 197.5 764.267 196.941 763.016 197.344C761.323 197.904 763.72 207.409 762.326 207.617C761.57 207.721 760.658 204.466 760.398 201.797C760.137 199.128 758.913 190.899 758.04 190.352C756.737 189.545 755.604 190.821 755.943 193.477C756.281 196.133 756.685 204.206 755.278 204.323C753.871 204.44 752.673 190.795 752.673 190.795C752.673 190.795 752.895 187.827 751.253 187.892C748.309 188.022 750.615 202.396 750.862 203.763C751.045 204.7 749.56 204.883 749.377 203.854C749.195 202.826 748.518 190.222 745.469 190.326C743.151 190.326 747.254 202.162 745.951 204.896C744.649 207.63 743.763 195.625 741.561 195.782C740.741 195.847 740.128 196.003 741.639 202.787C743.087 208.176 744.826 213.483 746.85 218.684C750.341 237.498 765.661 297.689 789.669 286.674C803.112 280.503 808.557 253.187 808.557 253.187H796.703Z" fill="#B78876"/>
<path d="M750.393 204.674C750.495 204.7 750.603 204.7 750.705 204.674C750.862 204.626 750.997 204.524 751.086 204.386C751.174 204.247 751.21 204.082 751.187 203.919C751.187 203.112 751.031 201.94 750.849 200.417C750.543 198.581 750.343 196.729 750.249 194.87C750.249 193.777 750.249 192.605 750.315 191.368C750.334 190.739 750.399 190.112 750.51 189.493C750.614 188.907 751.005 188.191 751.461 188.308H751.539C751.995 188.308 752.36 188.647 752.503 189.194C752.664 189.76 752.726 190.351 752.685 190.938C752.954 194.585 753.419 198.214 754.079 201.81C754.183 202.292 754.288 202.787 754.444 203.281C754.513 203.534 754.6 203.782 754.705 204.023C754.771 204.158 754.845 204.288 754.926 204.414C754.985 204.509 755.064 204.589 755.159 204.648C755.254 204.707 755.362 204.743 755.473 204.753C755.663 204.732 755.842 204.655 755.988 204.532C756.134 204.409 756.241 204.246 756.294 204.062C756.406 203.808 756.489 203.541 756.541 203.268C756.643 202.743 756.712 202.213 756.75 201.68C756.869 199.51 756.838 197.335 756.659 195.17C756.494 194.089 756.45 192.993 756.528 191.902C756.576 191.431 756.805 190.996 757.167 190.691C757.25 190.641 757.343 190.61 757.44 190.599C757.536 190.587 757.634 190.597 757.727 190.626C757.837 190.652 757.943 190.696 758.039 190.756C758.105 190.806 758.155 190.873 758.183 190.951C758.593 192.007 758.894 193.102 759.082 194.219C759.316 195.365 759.511 196.55 759.694 197.735C759.876 198.92 760.045 200.117 760.189 201.328C760.3 202.578 760.501 203.818 760.788 205.039C760.942 205.663 761.138 206.277 761.374 206.875C761.507 207.21 761.692 207.522 761.921 207.799C762.009 207.915 762.128 208.003 762.264 208.053C762.4 208.104 762.548 208.115 762.69 208.086C762.822 208.042 762.94 207.965 763.034 207.863C763.127 207.76 763.193 207.635 763.224 207.5C763.378 206.834 763.426 206.149 763.367 205.469C763.367 204.818 763.289 204.167 763.224 203.542C763.133 202.448 763.029 201.367 762.99 200.3C762.957 199.775 762.957 199.249 762.99 198.724C763.015 198.492 763.072 198.264 763.159 198.047C763.186 197.976 763.226 197.909 763.276 197.852H763.445C764.305 197.5 764.592 198.698 764.826 199.662C765.061 200.625 765.152 201.719 765.36 202.747C765.699 204.792 766.142 206.836 766.363 208.789C766.514 209.724 766.479 210.68 766.259 211.601C765.947 212.538 765.634 213.463 765.334 214.387V214.478V214.557C766.86 220.953 768.805 227.242 771.157 233.384C773.215 238.943 775.287 243.8 777.097 247.706C778.908 251.612 780.549 254.671 781.67 256.728L782.972 259.059C783.113 259.337 783.284 259.599 783.48 259.84C783.371 259.551 783.236 259.272 783.077 259.007L781.774 256.624C780.706 254.528 779.169 251.416 777.397 247.51C775.625 243.604 773.619 238.748 771.613 233.188C769.318 227.056 767.412 220.785 765.908 214.413V214.596C766.207 213.684 766.507 212.76 766.819 211.835C767.09 210.821 767.144 209.76 766.976 208.724C766.741 206.679 766.311 204.7 765.973 202.643C765.777 201.628 765.647 200.586 765.439 199.519C765.425 198.97 765.333 198.426 765.165 197.904C765.016 197.586 764.764 197.329 764.449 197.175C764.114 197.066 763.754 197.066 763.419 197.175H763.211C763.101 197.21 762.999 197.268 762.911 197.344C762.767 197.467 762.655 197.623 762.586 197.8C762.466 198.082 762.392 198.38 762.364 198.685C762.325 199.249 762.325 199.814 762.364 200.378C762.364 201.471 762.521 202.565 762.612 203.659C762.612 204.297 762.716 204.961 762.742 205.547C762.794 206.134 762.763 206.726 762.651 207.304C762.651 207.435 762.547 207.409 762.651 207.474L762.573 207.396C762.407 207.183 762.275 206.946 762.182 206.693C761.954 206.129 761.767 205.551 761.622 204.961C761.336 203.775 761.14 202.57 761.036 201.354C760.897 200.13 760.727 198.92 760.527 197.722C760.345 196.524 760.137 195.352 759.902 194.18C759.706 192.988 759.374 191.821 758.912 190.704C758.823 190.517 758.683 190.359 758.508 190.248C758.356 190.16 758.195 190.09 758.026 190.04C757.841 189.991 757.647 189.98 757.457 190.007C757.267 190.034 757.084 190.098 756.919 190.196C756.651 190.397 756.426 190.651 756.26 190.942C756.095 191.233 755.991 191.556 755.955 191.889C755.871 192.48 755.871 193.081 755.955 193.673C755.955 194.232 756.085 194.779 756.124 195.326C756.306 197.456 756.345 199.596 756.242 201.732C756.211 202.239 756.146 202.744 756.046 203.242C756.009 203.475 755.943 203.702 755.851 203.919C755.817 204.005 755.769 204.084 755.708 204.154C755.708 204.271 755.616 204.154 755.629 204.31C755.629 204.18 755.629 204.31 755.629 204.141C755.572 204.053 755.52 203.961 755.473 203.867C755.382 203.659 755.304 203.425 755.226 203.203C755.082 202.734 754.978 202.253 754.874 201.784C754.194 198.219 753.703 194.62 753.402 191.003C753.441 190.349 753.366 189.692 753.18 189.063C753.094 188.735 752.918 188.438 752.672 188.204C752.545 188.081 752.394 187.985 752.228 187.922C752.062 187.86 751.885 187.832 751.708 187.84H751.787C751.566 187.807 751.341 187.841 751.139 187.936C750.938 188.031 750.769 188.183 750.653 188.373C750.46 188.684 750.327 189.029 750.262 189.389C750.153 190.034 750.092 190.687 750.08 191.342C750.08 192.644 750.08 193.777 750.08 194.883C750.204 196.754 750.443 198.615 750.797 200.456C751.018 201.966 751.187 203.138 751.266 203.932C751.29 204.071 751.266 204.215 751.198 204.338C751.129 204.462 751.019 204.557 750.888 204.609C750.497 204.648 750.38 204.661 750.393 204.674Z" fill="#A36957"/>
<path d="M665.551 271.115C663.008 271.061 660.471 271.355 658.008 271.988C651.273 273.759 639.667 280.789 639.185 289.474H647.626C647.626 289.474 642.897 299.525 644.278 298.588C647.886 296.166 655.051 288.888 655.051 288.888L665.551 271.115Z" fill="#B78876"/>
<path d="M780.615 119.784C780.42 119.784 779.664 112.831 778.909 104.16C778.153 95.4887 777.684 88.536 777.867 88.536C778.049 88.536 778.817 95.4887 779.573 104.16C780.329 112.831 780.797 119.784 780.615 119.784Z" fill="#263238"/>
<path d="M817.624 89.0698C817.767 89.174 812.074 97.4417 804.897 107.532C797.719 117.623 791.766 125.76 791.61 125.604C791.453 125.448 797.159 117.232 804.337 107.142C811.514 97.0511 817.468 88.9657 817.624 89.0698Z" fill="#263238"/>
<path d="M832.996 126.541C832.996 126.724 826.378 128.247 818.145 129.94C809.912 131.632 803.191 132.856 803.152 132.674C803.112 132.492 809.756 130.968 818.002 129.276C826.248 127.583 832.904 126.359 832.996 126.541Z" fill="#263238"/>
<path d="M389.997 305.371L343.883 542.075L337.891 573.062L645.32 571.578C659.128 571.513 671.373 559.261 675.789 541.059L730.319 317.597C733.693 303.783 726.294 289.409 715.82 289.422L404.587 289.747C397.813 289.734 391.743 296.14 389.997 305.371Z" fill="#FFAC00"/>
<g opacity="0.5">
<path d="M389.997 305.371L343.883 542.075L337.891 573.062L645.32 571.578C659.128 571.513 671.373 559.261 675.789 541.059L730.319 317.597C733.693 303.783 726.294 289.409 715.82 289.422L404.587 289.747C397.813 289.734 391.743 296.14 389.997 305.371Z" fill="black"/>
</g>
<path d="M615.867 526.008L583.3 263.772C581.997 253.031 573.413 245.01 563.291 245.049L491.905 245.271C489.252 245.301 486.633 245.87 484.208 246.945C481.782 248.019 479.601 249.576 477.797 251.52L443.928 287.547L245.401 288.614C233.273 288.679 223.946 300.163 225.549 313.053L255.784 555.42C257.086 566.149 265.671 574.156 275.766 574.143L621.82 573.453C660.353 574.247 664.039 562.881 664.039 562.881C619.801 572.659 615.867 526.073 615.867 526.008Z" fill="#FFAC00"/>
<g opacity="0.5">
<path d="M466.646 473.563L454.974 486.089L365.09 405.261L376.762 392.735L466.646 473.563Z" fill="white"/>
<path d="M450.089 389.962L462.986 401.563L381.66 488.862L368.751 477.261L450.089 389.962Z" fill="white"/>
</g>
<path d="M665.278 135.122C664.856 134.944 664.494 134.65 664.233 134.274C663.972 133.898 663.824 133.456 663.806 132.999L663.285 120.917C663.266 120.541 663.335 120.167 663.487 119.823C663.638 119.479 663.868 119.175 664.157 118.935C664.447 118.695 664.788 118.525 665.154 118.44C665.521 118.355 665.902 118.356 666.268 118.443C667.276 118.66 668.319 118.67 669.331 118.471C670.344 118.271 671.305 117.868 672.156 117.284C672.939 116.789 673.613 116.138 674.135 115.372C674.657 114.606 675.016 113.741 675.191 112.831C675.309 111.91 675.24 110.974 674.99 110.079C674.739 109.185 674.311 108.35 673.732 107.623C673.121 106.797 672.354 106.099 671.473 105.57C670.592 105.04 669.616 104.689 668.599 104.538C666.55 104.424 664.521 105.004 662.843 106.186C661.164 107.367 659.934 109.08 659.35 111.048C659.156 111.644 658.739 112.142 658.186 112.438C657.633 112.734 656.987 112.806 656.383 112.638C655.778 112.47 655.262 112.076 654.941 111.537C654.62 110.998 654.52 110.357 654.661 109.746C655.547 106.651 657.472 103.956 660.113 102.114C662.753 100.272 665.948 99.3941 669.16 99.629C670.831 99.8516 672.441 100.408 673.893 101.264C675.346 102.121 676.611 103.261 677.614 104.616C678.589 105.872 679.303 107.31 679.713 108.847C680.122 110.383 680.219 111.986 679.998 113.56C679.702 115.133 679.087 116.628 678.19 117.953C677.294 119.279 676.136 120.407 674.787 121.268C672.833 122.583 670.55 123.327 668.196 123.417L668.599 132.739C668.614 133.148 668.526 133.555 668.342 133.922C668.158 134.288 667.884 134.602 667.546 134.834C667.209 135.066 666.818 135.21 666.41 135.251C666.002 135.292 665.59 135.23 665.212 135.069L665.278 135.122Z" fill="#FFAC00"/>
<path d="M668.847 140.069C668.874 140.462 668.784 140.855 668.588 141.197C668.392 141.539 668.1 141.815 667.747 141.991C667.394 142.167 666.996 142.234 666.605 142.184C666.214 142.134 665.846 141.969 665.549 141.71C665.252 141.451 665.038 141.11 664.935 140.729C664.832 140.349 664.844 139.946 664.969 139.573C665.095 139.199 665.329 138.871 665.641 138.631C665.953 138.39 666.33 138.247 666.723 138.22C666.984 138.201 667.247 138.233 667.495 138.316C667.744 138.399 667.974 138.53 668.171 138.702C668.369 138.874 668.53 139.083 668.646 139.318C668.762 139.552 668.83 139.808 668.847 140.069Z" fill="#FFAC00"/>
<path d="M623.423 118.078C623.479 117.821 623.518 117.56 623.54 117.297C623.54 116.724 623.683 115.995 623.787 114.967C623.915 113.704 624.129 112.451 624.426 111.217C624.595 110.488 624.686 109.68 624.947 108.86C625.207 108.04 625.468 107.155 625.754 106.256C627.263 101.805 629.46 97.6181 632.268 93.8482C635.947 88.9665 640.611 84.9121 645.959 81.9479C649.002 80.2327 652.244 78.8948 655.611 77.9638C659.246 77.0009 662.989 76.5107 666.749 76.5055C668.73 76.4737 670.71 76.5781 672.676 76.818C673.679 76.9222 674.669 77.1826 675.673 77.3518C676.687 77.5255 677.688 77.7691 678.669 78.0809C682.775 79.2278 686.68 80.9974 690.249 83.328C698.185 88.4725 704.23 96.0591 707.471 104.941C709.216 109.699 710.098 114.73 710.076 119.797C710.13 125.017 709.206 130.202 707.353 135.083L706.767 136.567L706.689 136.762L706.767 136.957C710.037 144.47 713.281 151.852 716.342 159L716.889 158.375L697.349 150.889L697.114 150.798L696.919 150.98C691.75 155.986 685.422 159.636 678.499 161.604C672.584 163.232 666.391 163.587 660.328 162.647C654.265 161.707 648.471 159.492 643.327 156.149C639.115 153.388 635.401 149.932 632.346 145.928C627.918 140.085 625.049 133.212 624.009 125.955C623.853 124.653 623.722 123.56 623.605 122.57C623.488 121.581 623.605 120.774 623.54 120.083C623.475 119.393 623.54 118.938 623.54 118.56C623.605 118.55 623.664 118.516 623.705 118.465C623.746 118.414 623.766 118.349 623.761 118.283C623.756 118.218 623.726 118.156 623.678 118.112C623.63 118.067 623.566 118.042 623.501 118.042C623.435 118.042 623.372 118.067 623.324 118.112C623.275 118.156 623.246 118.218 623.241 118.283C623.236 118.349 623.256 118.414 623.297 118.465C623.338 118.516 623.397 118.55 623.462 118.56C623.462 118.938 623.462 119.445 623.462 120.083C623.462 120.721 623.462 121.607 623.462 122.596C623.462 123.586 623.683 124.719 623.813 126.008C624.242 129.139 624.988 132.219 626.041 135.2C627.532 139.136 629.538 142.857 632.007 146.267C635.075 150.341 638.815 153.864 643.067 156.683C648.274 160.109 654.15 162.39 660.306 163.373C666.462 164.356 672.757 164.019 678.773 162.385C685.779 160.397 692.186 156.712 697.427 151.657L696.997 151.748L716.537 159.274L717.514 159.651L717.084 158.649C713.984 151.501 710.779 144.131 707.523 136.606V136.983L708.122 135.46C710.023 130.473 710.968 125.173 710.91 119.836C710.951 114.661 710.068 109.52 708.304 104.655C704.994 95.5957 698.815 87.8648 690.705 82.6379C687.047 80.253 683.038 78.452 678.825 77.2997C677.828 76.9845 676.81 76.7451 675.777 76.5836C674.761 76.4014 673.758 76.141 672.742 76.0498C670.75 75.8026 668.743 75.6896 666.736 75.7113C662.916 75.7275 659.115 76.244 655.429 77.2477C652.017 78.2162 648.733 79.5887 645.646 81.3359C640.245 84.3729 635.552 88.5225 631.877 93.5096C629.078 97.342 626.91 101.597 625.455 106.113C625.181 107.05 624.921 107.949 624.686 108.717C624.479 109.502 624.314 110.297 624.191 111.1C623.912 112.342 623.729 113.605 623.644 114.875C623.566 115.878 623.514 116.646 623.475 117.219C623.42 117.502 623.402 117.791 623.423 118.078Z" fill="#263238"/>
</svg>
