<svg width="83" height="83" viewBox="0 0 83 83" fill="none" xmlns="http://www.w3.org/2000/svg">
<path d="M59.8658 6.92678C58.9323 6.90347 57.9801 7.01761 57.039 7.28815L15.5289 19.2302C10.5102 20.6736 7.57866 25.9826 9.01414 31.0068L10.3752 35.7654V66.5729C10.3752 71.8157 14.641 76.0833 19.8856 76.0833H64.8439C70.0885 76.0833 74.3544 71.8157 74.3544 66.5729V37.1771C74.3544 35.7453 73.1941 34.5833 71.7606 34.5833H32.2836L69.0183 24.0158C69.6784 23.8257 70.2362 23.3815 70.5692 22.7806C70.9023 22.1798 70.9834 21.4713 70.7947 20.8108L68.7987 13.8198C67.7221 10.0515 64.4675 7.45096 60.7912 6.99433C60.4848 6.95627 60.177 6.93455 59.8658 6.92678ZM61.8821 12.7897C62.762 13.3339 63.4967 14.1469 63.8105 15.245V15.2484L65.0972 19.7469L56.7824 22.138L61.8821 12.7897ZM55.8435 13.0295L49.7745 24.1543L40.3519 26.8662L46.4175 15.7415L55.8435 13.0295ZM39.413 17.7577L33.3441 28.8825L23.9214 31.591L29.987 20.4697L39.413 17.7577ZM22.9792 22.4859L16.9102 33.6073L15.2857 34.0733L14.0024 29.5816C13.3352 27.2464 14.6478 24.8813 16.9643 24.2151L22.9792 22.4859ZM38.9166 46.6875C39.3653 46.689 39.8123 46.8053 40.2134 47.0387L50.5884 53.0908C51.3856 53.5577 51.8752 54.4117 51.8752 55.3333C51.8752 56.255 51.3856 57.109 50.5884 57.5758L40.2134 63.6279C39.8088 63.8631 39.3577 63.9792 38.9064 63.9792C38.4603 63.9792 38.0157 63.8647 37.6163 63.6347C36.8105 63.1713 36.3127 62.314 36.3127 61.3854V49.2812C36.3127 48.3527 36.8105 47.4954 37.6163 47.032C38.0192 46.8011 38.4678 46.686 38.9166 46.6875Z" fill="black"/>
</svg>
