<svg width="83" height="83" viewBox="0 0 83 83" fill="none" xmlns="http://www.w3.org/2000/svg">
<path d="M60.9771 5.19772C59.9968 5.07404 58.9913 5.37626 58.2314 6.06231L51.6288 12.0806H47.5524C44.2151 12.0806 41.5003 14.7954 41.5003 18.1327V23.3675C41.5003 26.7048 44.2151 29.4196 47.5524 29.4196L51.6119 29.4263L58.2381 35.4446C58.8831 36.0256 59.7096 36.3126 60.5448 36.3126C61.0151 36.3126 61.4935 36.2362 61.9396 36.039C63.1794 35.4892 63.9795 34.2538 63.9795 32.8982V8.60202C63.9795 7.24463 63.1794 6.01441 61.9396 5.46453C61.6284 5.32749 61.3039 5.23895 60.9771 5.19772ZM71.0515 10.2501C70.5793 10.254 70.1172 10.3867 69.7149 10.6339C69.3125 10.881 68.9853 11.2333 68.7685 11.6528C68.5516 12.0722 68.4534 12.5429 68.4843 13.0141C68.5153 13.4852 68.6742 13.939 68.9441 14.3265C70.1834 16.1627 70.8962 18.3164 70.8962 20.6555C70.8962 22.9947 70.1834 25.1517 68.9441 26.9879C68.7438 27.2699 68.6019 27.5891 68.5268 27.9268C68.4517 28.2644 68.4449 28.6136 68.5067 28.954C68.5686 29.2943 68.6979 29.6188 68.887 29.9084C69.0761 30.198 69.3212 30.4468 69.608 30.6403C69.8947 30.8338 70.2172 30.968 70.5565 31.035C70.8959 31.1019 71.2452 31.1004 71.5839 31.0304C71.9226 30.9604 72.244 30.8233 72.5289 30.6273C72.8139 30.4313 73.0568 30.1803 73.2434 29.889C75.0267 27.2467 76.0837 24.0607 76.0837 20.6555C76.0837 17.2504 75.0267 14.0678 73.2434 11.4254C73.0057 11.0616 72.6805 10.7633 72.2975 10.558C71.9145 10.3526 71.4861 10.2468 71.0515 10.2501ZM15.5628 17.2918C10.7955 17.2918 6.91699 21.1703 6.91699 25.9376V55.3334C6.91699 60.1007 10.7955 63.9793 15.5628 63.9793H34.5837V54.4688C34.5837 49.226 38.8512 44.9584 44.0941 44.9584H53.6045V35.9107L50.2711 32.8847L47.5457 32.8779C42.308 32.8779 38.042 28.6103 38.042 23.3675V17.2918H15.5628ZM25.0631 31.1251C25.5099 31.1234 25.958 31.2362 26.36 31.4662L38.4642 38.3829C39.2717 38.8463 39.7712 39.7052 39.7712 40.6355C39.7712 41.5658 39.2717 42.4247 38.4642 42.8882L26.36 49.8048C25.9623 50.0331 25.5176 50.1459 25.0732 50.1459C24.6237 50.1459 24.1725 50.0315 23.7696 49.7981C22.9707 49.3329 22.4795 48.4773 22.4795 47.5522V33.7188C22.4795 32.7937 22.9707 31.9381 23.7696 31.473C24.1691 31.2412 24.6163 31.1268 25.0631 31.1251ZM44.0941 48.4168C41.611 48.4168 39.4739 49.9217 38.5418 52.0676L56.1982 61.8752L73.8547 52.0676C72.9226 49.9234 70.7855 48.4168 68.3024 48.4168H44.0941ZM38.042 57.7245V70.0313C38.042 73.3686 40.7568 76.0834 44.0941 76.0834H68.3024C71.6397 76.0834 74.3545 73.3686 74.3545 70.0313V57.7245L57.458 67.1134C57.0654 67.3312 56.6323 67.4376 56.1982 67.4376C55.7642 67.4376 55.331 67.3312 54.9385 67.1134L38.042 57.7245Z" fill="#FFAC00"/>
</svg>
